<svg version="1.1" id="Capa_1" xmlns="http://www.w3.org/2000/svg" x="0" y="0" viewBox="0 0 480 480" xml:space="preserve"><circle cx="88" cy="327.976" r="8"/><circle cx="184" cy="327.976" r="8"/><circle cx="392" cy="327.976" r="8"/><path d="M480 175.976v-24a8 8 0 00-8-8H251.312l-32-32H84.688l-32 32H8a8 8 0 00-8 8v176a8 8 0 008 8h40.8c4.396 21.65 25.51 35.636 47.16 31.24a40 40 0 0031.24-31.24h17.6c4.396 21.65 25.51 35.636 47.16 31.24a40 40 0 0031.24-31.24h129.6c4.396 21.65 25.51 35.636 47.16 31.24a40 40 0 0031.24-31.24H472a8 8 0 008-8v-80c0-.112-.064-.224-.064-.336a7.89 7.89 0 00-.552-2.744L444 159.976h20v16h16zm-192-16h64v64h-64v-64zm-16 0v64h-64v-64h64zm-180.688-32h121.376l16 16H75.312l16-16zm100.688 32v64h-64v-64h64zm-144 0h64v64H48v-64zm-32 112h16v16H16v-16zm72 80c-13.255 0-24-10.745-24-24s10.745-24 24-24 24 10.745 24 24-10.745 24-24 24zm96 0c-13.255 0-24-10.745-24-24s10.745-24 24-24 24 10.745 24 24-10.745 24-24 24zm208 0c-13.255 0-24-10.745-24-24s10.745-24 24-24 24 10.745 24 24-10.745 24-24 24zm72-64h-16v16h16v16h-32.8c0-.144-.096-.28-.128-.424a39.625 39.625 0 00-2.072-6.656c-.312-.8-.736-1.472-1.096-2.216a40.029 40.029 0 00-2.304-4.304c-.512-.8-1.096-1.528-1.664-2.28a40.08 40.08 0 00-2.832-3.432 41.86 41.86 0 00-2.088-2.04 40.134 40.134 0 00-3.376-2.784c-.8-.584-1.6-1.144-2.4-1.664a39.65 39.65 0 00-4-2.152c-.848-.408-1.672-.84-2.552-1.192a39.607 39.607 0 00-4.8-1.48c-.8-.208-1.544-.48-2.36-.64a37.952 37.952 0 00-15.2 0c-.8.16-1.6.432-2.36.64-1.63.391-3.233.886-4.8 1.48-.88.352-1.704.8-2.552 1.192a39.65 39.65 0 00-4 2.152c-.8.52-1.6 1.088-2.4 1.664a40.134 40.134 0 00-3.376 2.784 41.86 41.86 0 00-2.088 2.04 40.08 40.08 0 00-2.832 3.432c-.568.752-1.152 1.488-1.664 2.28a40.029 40.029 0 00-2.304 4.248c-.36.744-.8 1.448-1.096 2.216a39.653 39.653 0 00-2.072 6.656c0 .144-.096.28-.128.424H223.2c0-.144-.096-.28-.128-.424A39.653 39.653 0 00221 312.84c-.312-.8-.736-1.472-1.096-2.216a40.029 40.029 0 00-2.304-4.248c-.512-.8-1.096-1.528-1.664-2.28a40.08 40.08 0 00-2.832-3.432 41.86 41.86 0 00-2.088-2.04 40.134 40.134 0 00-3.376-2.784c-.8-.584-1.6-1.144-2.4-1.664a39.65 39.65 0 00-4-2.152c-.848-.408-1.672-.84-2.552-1.192a39.607 39.607 0 00-4.8-1.48c-.8-.208-1.544-.48-2.36-.64a37.952 37.952 0 00-15.2 0c-.8.16-1.6.432-2.36.64-1.63.391-3.233.886-4.8 1.48-.88.352-1.704.8-2.552 1.192a39.65 39.65 0 00-4 2.152c-.8.52-1.6 1.088-2.4 1.664a40.134 40.134 0 00-3.376 2.784 41.86 41.86 0 00-2.088 2.04 40.08 40.08 0 00-2.832 3.432c-.568.752-1.152 1.488-1.664 2.28a40.029 40.029 0 00-2.304 4.248c-.36.744-.8 1.448-1.096 2.216a39.653 39.653 0 00-2.072 6.656c0 .144-.096.28-.128.424H127.2c0-.144-.096-.28-.128-.424A39.653 39.653 0 00125 312.84c-.312-.8-.736-1.472-1.096-2.216a40.029 40.029 0 00-2.304-4.248c-.512-.8-1.096-1.528-1.664-2.28a40.08 40.08 0 00-2.832-3.432 41.86 41.86 0 00-2.088-2.04 40.134 40.134 0 00-3.376-2.784c-.8-.584-1.6-1.144-2.4-1.664a39.65 39.65 0 00-4-2.152c-.848-.408-1.672-.84-2.552-1.192a39.607 39.607 0 00-4.8-1.48c-.8-.208-1.544-.48-2.36-.64a37.952 37.952 0 00-15.2 0c-.8.16-1.6.432-2.36.64-1.63.391-3.233.886-4.8 1.48-.88.352-1.704.8-2.552 1.192a39.65 39.65 0 00-4 2.152c-.8.52-1.6 1.088-2.4 1.664a40.134 40.134 0 00-3.376 2.784 41.86 41.86 0 00-2.088 2.04 40.08 40.08 0 00-2.832 3.432c-.568.752-1.152 1.488-1.664 2.28a40.029 40.029 0 00-2.304 4.248c-.36.744-.8 1.448-1.096 2.216a39.653 39.653 0 00-2.072 6.656c0 .144-.096.28-.128.424H16v-15.944h24a8 8 0 008-8v-32a8 8 0 00-8-8H16v-96h16v72a8 8 0 008 8h319.44L464 254.912v33.064zm-4.8-49.912L368 225.04v-65.064h58.664l32.536 78.088z"/><path d="M240 287.976h32v16h-32zm64 0h32v16h-32z"/></svg>