<svg height="40" viewBox="0 0 496 496" width="40" xmlns="http://www.w3.org/2000/svg"><path d="M296 160a8 8 0 11-16 0 8 8 0 0116 0zm-80 0a8 8 0 11-16 0 8 8 0 0116 0zm32 72c17.648 0 32-14.352 32-32h-16c0 8.824-7.176 16-16 16s-16-7.176-16-16h-16c0 17.648 14.352 32 32 32zm0 0"/><path d="M416 400h16v-64.168c0-26.937-19.207-50.078-45.68-55.039L304 265.359v-16.328c11.313-11.101 19.336-25.527 22.488-41.687C345.45 204.214 360 187.832 360 168V99.777c0-24.672-13.465-46.898-35.23-58.328l-10.946-10.945C294.152 10.832 267.992 0 240.168 0 182.727 0 136 46.727 136 104.168V168c0 19.832 14.55 36.215 33.512 39.344 3.152 16.16 11.176 30.586 22.488 41.687v16.328l-49.48 9.282.136.703L48 180.688V176c0-19.313-13.77-35.473-32-39.191V88H0v240h16v-56.809c8.953-1.824 16.695-6.757 22.39-13.488l40.364 40.36C69.336 308.32 64 321.671 64 335.832V400h16v80H32v16h432v-16h-48zm-88-209.473V145.48c9.29 3.313 16 12.114 16 22.528 0 10.418-6.71 19.207-16 22.52zM240.168 16c23.55 0 45.695 9.168 62.344 25.824l12.761 12.75 1.16.586c17 8.504 27.567 25.602 27.567 44.617V136.2c-4.672-3.535-10.055-6.183-16-7.39V112h-16v7.48c-9.938-1.41-19.121-5.921-26.344-13.136l-4.633-4.64-5.464 3.64C261.176 114.938 244.449 120 227.16 120H184v-8h-16v16.809c-5.945 1.214-11.328 3.855-16 7.39V104.16C152 55.55 191.543 16 240.168 16zM152 168c0-10.414 6.71-19.215 16-22.527v45.047c-9.29-3.305-16-12.106-16-22.52zm32 24v-56h43.16c18.36 0 36.192-4.832 51.961-14.023 9.422 7.695 20.781 12.375 32.879 13.64V192c0 35.29-28.71 64-64 64s-64-28.71-64-64zm64 80c14.574 0 28.215-3.984 40-10.824v8.137C283.953 274.23 270.625 288 248 288c-22.672 0-35.93-13.71-40-18.688v-8.136c11.785 6.84 25.426 10.824 40 10.824zm-51.246 8.754C203.543 288.512 220.52 304 248 304s44.457-15.488 51.246-23.246l84.121 15.773C402.273 300.063 416 316.602 416 335.832V384h-48v-56h-16v52.39C331.273 344.368 292.465 320 248 320c-17.762 0-34.574 3.984-49.754 10.938l-42.492-42.497zm-20.29 151.293c1.087-9.871 4.2-19.125 8.88-27.39L260.688 480H203.55c2.754-4.727 4.449-10.145 4.449-16 0-17.488-14.105-31.695-31.535-31.953zm18.415-40.48c6.687-7.329 14.832-13.286 24.008-17.368l73.64 73.64C289.72 452.61 288 458.08 288 464c0 5.855 1.695 11.273 4.45 16h-9.138zm108.969 44.968l-67.504-67.504c3.8-.625 7.68-1.031 11.656-1.031 37.016 0 67.559 28.078 71.535 64.047-5.734.082-11.055 1.754-15.687 4.488zM335.594 432c-4.059-44.785-41.77-80-87.594-80s-83.535 35.215-87.594 80h-16c4.114-53.61 48.953-96 103.594-96s99.48 42.39 103.594 96zM150.71 370.023a119.682 119.682 0 00-6.711 10.36v-17.07zM32 232c0 10.414-6.71 19.215-16 22.527V153.473c9.29 3.312 16 12.113 16 22.527zm16 0v-28.687L183.602 338.91a120.892 120.892 0 00-22.649 18.73L46.281 242.97C47.29 239.457 48 235.832 48 232zm80 115.313V384H80v-48.168c0-9.879 3.64-19.2 10.063-26.457zM96 480v-80h32v32h-16v16h64c8.824 0 16 7.176 16 16s-7.176 16-16 16zm208-16c0-8.824 7.176-16 16-16h64v-16h-16v-32h32v80h-80c-8.824 0-16-7.176-16-16zm176 16h16v16h-16zM0 480h16v16H0zm0 0"/></svg>