<svg xmlns="http://www.w3.org/2000/svg" version="1.1" id="svg2" width="1821.333" height="640.026"><g id="g817" stroke-width="1.333"><path d="M0 640l15.07-2.703s131.714-27.39 199.597-50.184c27.034-9.078 70.843-25.556 88-33.1 95.672-42.072 154.91-76.392 226.438-131.193 7.355-5.635 25.364-20.84 39.464-33.322 34.976-30.96 80.66-84.697 103.279-121.488 37.497-60.99 57.806-118.068 64.192-180.41 2.096-20.464-1.697-87.581-1.697-87.581S1097.262.01 1277.333 0h544v640H910.444z" id="path827" fill="#fff" fill-opacity=".493"/><path d="M292 633.211c109.994-40.798 195.601-87.215 279.632-151.62 26.733-20.488 60.906-52.52 87.759-82.258 37.49-41.517 66.127-85.324 87.6-134 16.643-37.728 27.159-76.87 31.598-117.614 3.166-29.057.858-80.171-4.461-110.225-1.66-9.376-8.74-37.477-8.74-37.477S797.126 0 1293.19 0h528.142v640l-773.666-.056L274 639.888l18-6.677z" id="path823" fill="#fff" fill-opacity=".778"/><path d="M326.667 640.026l16.186-4.905s38.199-12.85 55.814-18.74c14.462-4.836 66.396-24.206 72.666-27.103 2.934-1.355 14.034-6.147 24.667-10.65 35.52-15.037 89.69-42.82 123.333-63.251 29.457-17.89 78.11-51.49 86.047-59.424 1.126-1.126 4.427-3.804 7.334-5.95 16.737-12.355 55.687-48.957 74.964-70.445 18.172-20.257 26.406-30.27 36.322-44.166 4.033-5.653 9.388-13.03 11.898-16.392 7.304-9.781 26.01-41.523 34.54-58.608 12.668-25.372 26.853-63.004 32.313-85.725.617-2.567 2.052-7.967 3.19-12 1.137-4.034 4.111-22.334 6.61-40.667 5.83-42.782 6.136-68.488 1.354-113.667L913.023 0h908.31v640l-749-.105c-411.95-.058-745.666.131-745.666.131z" id="path819" fill="#fafffc" fill-opacity="1"/></g></svg>